Coordinates
version=1
nRows=10
nColumns=22
inDegrees=yes

Units are S.I. units (second, meters, Newtons, ...)
If the header above contains a line with 'inDegrees', this indicates whether rotational values are in degrees (yes) or radians (no).

endheader
time	pelvis_tilt	pelvis_list	pelvis_rotation	pelvis_tx	pelvis_ty	pelvis_tz	hip_flexion_r	hip_adduction_r	hip_rotation_r	knee_angle_r	ankle_angle_r	subtalar_angle_r	hip_flexion_l	hip_adduction_l	hip_rotation_l	knee_angle_l	ankle_angle_l	subtalar_angle_l	lumbar_extension	lumbar_bending	lumbar_rotation
      4.23000000	      1.87196377	    -10.32499762	    -90.66254741	      0.19233023	      0.94019947	      0.60556328	      3.30178881	     -2.07688809	     -4.52994605	    -60.60105267	      2.82442165	      2.70867213	      6.65871009	      1.61929641	     -9.69775721	    -27.37841063	     17.76002991	    -17.49078110	    -14.82502701	     -0.63452594	     -8.78361452
      4.24000000	      1.75908300	    -10.33875448	    -90.75299236	      0.19301849	      0.94091769	      0.60997316	      4.15620348	     -1.99454993	     -4.64509780	    -60.14098660	      3.93588362	      2.45591273	      6.23703358	      1.57030892	     -9.75064256	    -27.20688427	     17.94580580	    -17.47587678	    -15.02228706	     -0.47988344	     -8.92111384
      4.25000000	      1.62836751	    -10.34290095	    -90.82086089	      0.19364147	      0.94162330	      0.61426641	      4.93175052	     -1.88216250	     -4.77964272	    -59.47790753	      4.95496373	      2.46501632	      5.83107101	      1.49219283	     -9.80183383	    -27.02874222	     18.11506745	    -17.45202985	    -15.20206845	     -0.30804975	     -9.06629134
      4.26000000	      1.52227488	    -10.34685640	    -90.85483667	      0.19425820	      0.94232332	      0.61851496	      5.60365675	     -1.82116630	     -4.99326913	    -58.61737043	      5.95515970	      2.09017470	      5.41955496	      1.43693080	     -9.85090505	    -26.82845389	     18.27259335	    -17.38035217	    -15.36146665	     -0.15975271	     -9.23122601
      4.27000000	      1.39284161	    -10.30770483	    -90.87421276	      0.19478147	      0.94295511	      0.62265908	      6.22931315	     -1.70953107	     -5.18697440	    -57.57493899	      6.83607312	      2.11128392	      5.07216566	      1.34543246	     -9.88717059	    -26.64486402	     18.41621657	    -17.35107573	    -15.46199143	      0.00590766	     -9.37942460
      4.28000000	      1.26121464	    -10.31108666	    -90.84744802	      0.19531937	      0.94365754	      0.62678931	      6.68769678	     -1.62312807	     -5.47447900	    -56.34062288	      7.64953867	      1.94048668	      4.67198401	      1.24921032	     -9.89448434	    -26.44187450	     18.59063998	    -17.25405409	    -15.58902907	      0.18517600	     -9.58083879
      4.29000000	      1.12541062	    -10.28212645	    -90.80013902	      0.19579385	      0.94429977	      0.63084818	      7.08587084	     -1.52086548	     -5.75984995	    -54.95875483	      8.40573293	      1.87297199	      4.31779627	      1.14055154	     -9.88766038	    -26.24328682	     18.74512459	    -17.17143565	    -15.66608480	      0.36382405	     -9.75990727
      4.30000000	      0.98709239	    -10.26219582	    -90.72820579	      0.19622785	      0.94495040	      0.63487711	      7.36842484	     -1.42103695	     -6.07640219	    -53.43095325	      9.10484245	      1.78037117	      3.95708242	      1.02235747	     -9.86607520	    -26.04176991	     18.87270178	    -17.05369025	    -15.73364277	      0.54351761	     -9.93024573
      4.31000000	      0.85108249	    -10.20162892	    -90.61649794	      0.19663632	      0.94548716	      0.63883289	      7.60892291	     -1.32739338	     -6.43305090	    -51.80205961	      9.76604422	      1.79404392	      3.67086485	      0.89496375	     -9.82820817	    -25.88136851	     19.05039512	    -16.97056485	    -15.73952028	      0.72236673	    -10.11906624
      4.32000000	      0.71379422	    -10.15678482	    -90.47840513	      0.19699012	      0.94602457	      0.64272642	      7.73638574	     -1.22549251	     -6.80131921	    -50.06024190	     10.35500352	      1.76219272	      3.37343819	      0.75972460	     -9.76135782	    -25.71687672	     19.21338482	    -16.84531195	    -15.75099909	      0.90057078	    -10.31421672
